<svg width="1000" height="1000" viewBox="0 0 1000 1000" fill="none" xmlns="http://www.w3.org/2000/svg">
<path d="M297.716 234C317.876 234 338.037 234 358.197 234C367.597 234 367.627 234 370.687 242.56C431.727 413.39 492.756 584.23 553.786 755.07C554.236 756.34 554.736 757.62 554.996 758.93C556.056 764.22 554.617 766.11 549.117 766.16C536.907 766.26 524.686 766.2 512.476 766.2C490.766 766.2 469.057 766.2 447.347 766.2C438.077 766.2 437.297 765.65 434.387 757.14C421.557 719.71 408.656 682.31 396.016 644.83C394.476 640.27 392.506 638.57 387.496 638.59C328.376 638.78 269.247 638.77 210.117 638.59C205.357 638.58 203.466 640.08 202.056 644.5C190.316 681.46 178.307 718.34 166.387 755.25C163.307 764.78 161.897 765.83 151.937 765.83C123.057 765.83 94.1665 765.83 65.2865 765.83C53.3365 765.83 52.0864 764.12 55.9664 753.03C94.2664 643.54 132.597 534.07 170.867 424.57C187.927 375.74 205.246 327 221.536 277.92C225.236 266.79 225.437 254.43 226.687 242.58C227.557 234.39 227.426 234.02 235.486 234.02C256.226 234 276.966 234.02 297.716 234.02V234ZM234.697 537.7H362.827C340.897 467.15 319.057 396.91 297.827 328.6C277.157 397.06 255.967 467.26 234.697 537.7Z" fill="#9999FF"/>
<path d="M924.506 578.019C929.376 578.039 946.596 578.089 946.596 578.089C946.596 578.089 946.476 535.679 945.786 521.679C944.586 497.929 940.886 474.319 933.156 452.129C921.116 417.589 898.486 387.919 866.566 369.409C849.456 359.469 830.496 352.909 811.016 349.419C741.716 336.979 665.446 353.549 621.886 412.039C587.046 458.809 576.876 520.269 577.016 577.249C577.016 577.249 577.416 751.879 762.846 765.689C762.846 765.689 844.106 771.799 910.496 742.919V654.659C910.496 654.659 704.136 717.389 690.666 577.259C722.356 577.359 754.046 577.479 785.726 577.579C831.976 577.729 878.246 577.879 924.496 578.029L924.506 578.019ZM766.436 427.039C808.276 427.039 842.206 460.859 842.206 502.559H690.676C690.676 460.849 724.606 427.039 766.446 427.039H766.436Z" fill="#9999FF"/>
</svg>
