<svg width="1000" height="1000" viewBox="0 0 1000 1000" fill="none" xmlns="http://www.w3.org/2000/svg">
<path d="M840.44 379.32H727.07V793.71H840.44V379.32Z" fill="#FF9A00"/>
<path d="M783.76 336.32C819.747 336.32 848.92 307.147 848.92 271.16C848.92 235.173 819.747 206 783.76 206C747.773 206 718.6 235.173 718.6 271.16C718.6 307.147 747.773 336.32 783.76 336.32Z" fill="#FF9A00"/>
<path d="M481.53 247.699H335.48C335.48 272.249 331.22 296.619 322.89 319.719L152 793.709H271.65L314.64 663.109L506.37 661.719L550.18 793.709H676.69L481.53 247.699ZM346.08 556.229L408.42 344.259L473.82 556.229H346.08Z" fill="#FF9A00"/>
</svg>
