<svg width="165" height="165" viewBox="0 0 165 165" fill="none" xmlns="http://www.w3.org/2000/svg">
<path d="M127.188 65.3125V59.8125C127.188 52.1118 127.188 48.2614 125.689 45.3201C124.371 42.7329 122.267 40.6294 119.68 39.3112C116.739 37.8125 112.888 37.8125 105.188 37.8125H52.9375C45.2368 37.8125 41.3864 37.8125 38.4451 39.3112C35.8579 40.6294 33.7544 42.7329 32.4362 45.3201C30.9375 48.2614 30.9375 52.1118 30.9375 59.8125V84.5625C30.9375 92.2632 30.9375 96.1136 32.4362 99.0549C33.7544 101.642 35.8579 103.746 38.4451 105.064C41.3864 106.562 45.2368 106.562 52.9375 106.562H92.8125" stroke="#4F8CE5" stroke-width="6.875" stroke-linecap="round"/>
<path d="M51.5625 85.9375H79.0625" stroke="#4F8CE5" stroke-width="6.875" stroke-linecap="round"/>
<path d="M51.5625 58.4375H99.6875" stroke="#4F8CE5" stroke-width="6.875" stroke-linecap="round"/>
<circle cx="120.312" cy="92.8125" r="13.75" stroke="#4F8CE5" stroke-width="6.875"/>
<path d="M134.062 127.188C134.062 127.188 130.625 120.312 120.312 120.312C110 120.312 106.562 127.188 106.562 127.188" stroke="#4F8CE5" stroke-width="6.875" stroke-linecap="round"/>
</svg>
