<svg width="165" height="165" viewBox="0 0 165 165" fill="none" xmlns="http://www.w3.org/2000/svg">
<path d="M82.5 44.6875V127.187" stroke="white" stroke-width="6.875" stroke-linecap="round"/>
<path d="M140.938 44.6875V127.187" stroke="white" stroke-width="6.875" stroke-linecap="round"/>
<path d="M24.0625 44.6875V127.187" stroke="white" stroke-width="6.875" stroke-linecap="round"/>
<path d="M140.938 127.188C140.938 127.188 134.062 113.438 110 113.438C85.9375 113.438 82.5 127.188 82.5 127.188" stroke="white" stroke-width="6.875" stroke-linecap="round"/>
<path d="M24.0625 127.188C24.0625 127.188 30.9375 113.438 55 113.438C79.0625 113.438 82.5 127.188 82.5 127.188" stroke="white" stroke-width="6.875" stroke-linecap="round"/>
<path d="M140.938 44.6875C140.938 44.6875 134.062 30.9375 110 30.9375C85.9375 30.9375 82.5 44.6875 82.5 44.6875" stroke="white" stroke-width="6.875" stroke-linecap="round"/>
<path d="M24.0625 44.6875C24.0625 44.6875 30.9375 30.9375 55 30.9375C79.0625 30.9375 82.5 44.6875 82.5 44.6875" stroke="white" stroke-width="6.875" stroke-linecap="round"/>
</svg>
