<svg width="110" height="110" viewBox="0 0 110 110" fill="none" xmlns="http://www.w3.org/2000/svg">
<path d="M38.1633 106.999C47.6374 106.999 55.3265 99.3087 55.3265 89.8327V72.666H38.1633C28.6892 72.666 21.0001 80.3567 21.0001 89.8327C21.0001 99.3087 28.6892 106.999 38.1633 106.999Z" fill="#0ACF83"/>
<path d="M21.0001 55.5007C21.0001 46.0247 28.6892 38.334 38.1633 38.334H55.3265V72.6673H38.1633C28.6892 72.6673 21.0001 64.9767 21.0001 55.5007Z" fill="#A259FF"/>
<path d="M21 21.1667C21 11.6907 28.6892 4 38.1633 4H55.3265V38.3333H38.1633C28.6892 38.3333 21 30.6427 21 21.1667Z" fill="#F24E1E"/>
<path d="M55.3266 4H72.4898C81.9639 4 89.6531 11.6907 89.6531 21.1667C89.6531 30.6427 81.9639 38.3333 72.4898 38.3333H55.3266V4Z" fill="#FF7262"/>
<path d="M89.6531 55.5007C89.6531 64.9767 81.9639 72.6673 72.4898 72.6673C63.0157 72.6673 55.3266 64.9767 55.3266 55.5007C55.3266 46.0247 63.0157 38.334 72.4898 38.334C81.9639 38.334 89.6531 46.0247 89.6531 55.5007Z" fill="#1ABCFE"/>
</svg>
