<svg width="102" height="85" viewBox="0 0 102 85" fill="none" xmlns="http://www.w3.org/2000/svg">
<path d="M100.311 25.0664H83.9147V84.9987H100.311V25.0664Z" fill="#FF9A00"/>
<path d="M92.1136 18.8479C97.3183 18.8479 101.538 14.6286 101.538 9.42393C101.538 4.21924 97.3183 0 92.1136 0C86.909 0 82.6897 4.21924 82.6897 9.42393C82.6897 14.6286 86.909 18.8479 92.1136 18.8479Z" fill="#FF9A00"/>
<path d="M48.4028 6.03125H27.28C27.28 9.58186 26.6638 13.1064 25.4591 16.4473L0.743683 84.9994H18.0484L24.2659 66.111L51.9954 65.91L58.3315 84.9994H76.6283L48.4028 6.03125ZM28.813 50.6532L37.8291 19.9965L47.2878 50.6532H28.813Z" fill="#FF9A00"/>
</svg>
