<svg width="113" height="85" viewBox="0 0 113 85" fill="none" xmlns="http://www.w3.org/2000/svg">
<path d="M31.9001 0H0V85H17.9053V58.4508H31.9001C39.9707 58.4508 47.2768 55.1784 52.5661 49.8906C57.8539 44.6013 61.1263 37.2952 61.1263 29.2246C61.1263 13.085 48.0412 0 31.9016 0H31.9001ZM39.3879 38.9756C36.8909 41.4694 33.4447 43.0141 29.6369 43.0141H17.9053V15.4352H29.6369C37.2526 15.4352 43.4263 21.6089 43.4263 29.2246C43.4263 33.0325 41.8833 36.4786 39.3879 38.9756Z" fill="#9A99FF"/>
<path d="M89.7318 28.2194V19.9625H72.6493V84.9977H89.7318V47.9947C89.7318 44.8975 91.2243 41.9725 93.7718 40.2115C100.642 35.4671 112.473 36.1162 112.473 36.1162V18.2109C97.6554 18.2109 89.7318 28.2162 89.7318 28.2162V28.2194Z" fill="#9A99FF"/>
</svg>
