<svg width="1000" height="1000" viewBox="0 0 1000 1000" fill="none" xmlns="http://www.w3.org/2000/svg">
<path d="M384.362 846.168C448.041 846.168 499.723 794.486 499.723 730.807V615.445H384.362C320.682 615.445 269 667.127 269 730.807C269 794.486 320.682 846.168 384.362 846.168Z" fill="#0ACF83"/>
<path d="M269 500.084C269 436.405 320.682 384.723 384.362 384.723H499.723V615.446H384.362C320.682 615.446 269 563.764 269 500.084Z" fill="#A259FF"/>
<path d="M269 269.362C269 205.682 320.682 154 384.362 154H499.723V384.723H384.362C320.682 384.723 269 333.041 269 269.362Z" fill="#F24E1E"/>
<path d="M499.723 154H615.084C678.764 154 730.446 205.682 730.446 269.362C730.446 333.041 678.764 384.723 615.084 384.723H499.723V154Z" fill="#FF7262"/>
<path d="M730.446 500.084C730.446 563.764 678.764 615.446 615.084 615.446C551.405 615.446 499.723 563.764 499.723 500.084C499.723 436.405 551.405 384.723 615.084 384.723C678.764 384.723 730.446 436.405 730.446 500.084Z" fill="#1ABCFE"/>
</svg>
