<svg width="230" height="88" viewBox="0 0 230 88" fill="none" xmlns="http://www.w3.org/2000/svg">
<g filter="url(#filter0_d_66_3451)">
<path d="M57.8346 3.54736V32H49.9244V3.54736H57.8346ZM71.9849 32.2825C69.9401 32.2825 68.1105 31.9462 66.4962 31.2735C64.9088 30.574 63.6442 29.6323 62.7025 28.4485C61.7877 27.2377 61.2765 25.879 61.1689 24.3723H68.837C68.9446 25.0987 69.2809 25.6637 69.846 26.0673C70.411 26.4709 71.1105 26.6727 71.9446 26.6727C72.5903 26.6727 73.1015 26.5382 73.4782 26.2691C73.8549 26.0001 74.0432 25.6503 74.0432 25.2198C74.0432 24.6548 73.7338 24.2377 73.115 23.9687C72.4962 23.6996 71.4737 23.4037 70.0477 23.0808C68.4334 22.7579 67.0881 22.3947 66.0119 21.9911C64.9357 21.5875 63.994 20.9284 63.1868 20.0136C62.4066 19.0988 62.0164 17.8611 62.0164 16.3006C62.0164 14.9553 62.3797 13.7446 63.1061 12.6683C63.8326 11.5652 64.8953 10.6908 66.2944 10.0451C67.7204 9.39932 69.4289 9.07645 71.4199 9.07645C74.3795 9.07645 76.7069 9.8029 78.4019 11.2558C80.097 12.7087 81.079 14.619 81.3481 16.9867H74.2047C74.0701 16.2602 73.7473 15.7087 73.2361 15.332C72.7518 14.9284 72.0926 14.7266 71.2585 14.7266C70.6128 14.7266 70.115 14.8477 69.7652 15.0898C69.4424 15.332 69.2809 15.6683 69.2809 16.0988C69.2809 16.6369 69.5904 17.054 70.2092 17.3499C70.828 17.619 71.8235 17.9015 73.1957 18.1974C74.8369 18.5472 76.1957 18.9373 77.2719 19.3678C78.375 19.7983 79.3302 20.4979 80.1373 21.4665C80.9714 22.4082 81.3884 23.6996 81.3884 25.3409C81.3884 26.6592 80.9983 27.8431 80.2181 28.8924C79.4647 29.9417 78.375 30.7758 76.949 31.3946C75.5499 31.9865 73.8952 32.2825 71.9849 32.2825ZM98.636 25.2602V32H95.2055C89.4208 32 86.5285 29.1346 86.5285 23.4037V15.9374H83.7437V9.35896H86.5285V3.87022H94.4791V9.35896H98.5956V15.9374H94.4791V23.5247C94.4791 24.1436 94.6136 24.5875 94.8826 24.8566C95.1786 25.1256 95.6629 25.2602 96.3355 25.2602H98.636ZM112.798 32.2825C110.538 32.2825 108.506 31.8117 106.704 30.87C104.928 29.9283 103.529 28.583 102.506 26.8341C101.484 25.0853 100.973 23.027 100.973 20.6593C100.973 18.3185 101.484 16.2737 102.506 14.5248C103.556 12.776 104.968 11.4307 106.744 10.489C108.547 9.5473 110.578 9.07645 112.838 9.07645C115.098 9.07645 117.116 9.5473 118.892 10.489C120.694 11.4307 122.107 12.776 123.129 14.5248C124.179 16.2737 124.703 18.3185 124.703 20.6593C124.703 23.0001 124.179 25.0584 123.129 26.8341C122.107 28.583 120.694 29.9283 118.892 30.87C117.089 31.8117 115.058 32.2825 112.798 32.2825ZM112.798 25.4216C113.901 25.4216 114.816 25.018 115.542 24.2108C116.295 23.3768 116.672 22.1929 116.672 20.6593C116.672 19.1257 116.295 17.9553 115.542 17.1481C114.816 16.341 113.914 15.9374 112.838 15.9374C111.762 15.9374 110.86 16.341 110.134 17.1481C109.408 17.9553 109.044 19.1257 109.044 20.6593C109.044 22.2198 109.394 23.4037 110.094 24.2108C110.793 25.018 111.695 25.4216 112.798 25.4216ZM157.504 9.15717C160.356 9.15717 162.589 10.0181 164.204 11.7401C165.845 13.4621 166.666 15.8163 166.666 18.8028V32H158.755V19.8521C158.755 18.6414 158.419 17.6997 157.746 17.027C157.074 16.3544 156.159 16.0181 155.002 16.0181C153.845 16.0181 152.93 16.3544 152.258 17.027C151.585 17.6997 151.249 18.6414 151.249 19.8521V32H143.339V19.8521C143.339 18.6414 143.002 17.6997 142.33 17.027C141.684 16.3544 140.782 16.0181 139.626 16.0181C138.442 16.0181 137.513 16.3544 136.841 17.027C136.168 17.6997 135.832 18.6414 135.832 19.8521V32H127.922V9.35896H135.832V12.3455C136.531 11.3769 137.433 10.6101 138.536 10.0451C139.666 9.45313 140.957 9.15717 142.41 9.15717C144.078 9.15717 145.558 9.52039 146.85 10.2468C148.168 10.9733 149.204 11.9957 149.957 13.3141C150.764 12.0764 151.827 11.0809 153.146 10.3276C154.464 9.5473 155.917 9.15717 157.504 9.15717ZM181.533 32.2825C179.273 32.2825 177.242 31.8117 175.439 30.87C173.663 29.9283 172.264 28.583 171.242 26.8341C170.219 25.0853 169.708 23.027 169.708 20.6593C169.708 18.3185 170.219 16.2737 171.242 14.5248C172.291 12.776 173.703 11.4307 175.479 10.489C177.282 9.5473 179.313 9.07645 181.573 9.07645C183.833 9.07645 185.851 9.5473 187.627 10.489C189.43 11.4307 190.842 12.776 191.865 14.5248C192.914 16.2737 193.439 18.3185 193.439 20.6593C193.439 23.0001 192.914 25.0584 191.865 26.8341C190.842 28.583 189.43 29.9283 187.627 30.87C185.824 31.8117 183.793 32.2825 181.533 32.2825ZM181.533 25.4216C182.636 25.4216 183.551 25.018 184.277 24.2108C185.031 23.3768 185.407 22.1929 185.407 20.6593C185.407 19.1257 185.031 17.9553 184.277 17.1481C183.551 16.341 182.65 15.9374 181.573 15.9374C180.497 15.9374 179.596 16.341 178.869 17.1481C178.143 17.9553 177.78 19.1257 177.78 20.6593C177.78 22.2198 178.129 23.4037 178.829 24.2108C179.529 25.018 180.43 25.4216 181.533 25.4216ZM207.513 24.5337L211.751 9.35896H220.186L212.397 32H202.549L194.76 9.35896H203.195L207.513 24.5337Z" fill="#5590E6"/>
</g>
<g filter="url(#filter1_d_66_3451)">
<path d="M21.4163 67.3987C15.822 67.3987 12.823 63.9384 12.4193 57.0176C6.13291 56.0948 2.98973 53.1535 2.98973 48.1936C2.98973 45.0792 4.17203 42.3974 6.53663 40.1482C3.01856 36.8608 1.25953 32.766 1.25953 27.8638C1.25953 23.1922 3.01856 18.9244 6.53663 15.0603C11.4965 9.58137 17.6099 7.10142 24.8767 7.62048C28.2794 4.96751 32.3165 3.64103 36.9881 3.64103C41.7173 3.64103 45.0912 5.02519 47.1097 7.7935C47.9171 6.9284 48.6669 6.20749 49.359 5.63076C50.1087 4.99635 50.772 4.47729 51.3487 4.07358C52.0984 3.66987 52.4733 3.72754 52.4733 4.2466C52.4733 4.41962 52.3291 4.59264 52.0408 4.76566C51.291 5.22704 50.5701 5.77494 49.878 6.40934C49.1859 7.04375 48.465 7.76466 47.7153 8.57209C48.292 9.55253 48.5804 10.6483 48.5804 11.8595C48.5804 12.6669 48.3497 13.5897 47.8883 14.6278C46.9655 16.5887 45.466 17.5691 43.3898 17.5691C42.1787 17.5691 41.5731 16.9635 41.5731 15.7524C41.5731 15.464 41.6308 15.0892 41.7461 14.6278C42.2652 12.9553 43.6205 11.1385 45.8121 9.17766C44.6586 6.294 41.8615 4.85217 37.4206 4.85217C33.6142 4.85217 30.3845 5.91912 27.7315 8.05303C32.3454 9.20649 35.4309 11.5423 36.9881 15.0603C37.0457 15.2333 36.9881 15.3775 36.8151 15.4929C36.5844 15.5505 36.4402 15.5217 36.3825 15.4064C34.7677 11.7729 31.711 9.49486 27.2125 8.57209C25.4246 10.1293 24.5307 11.8883 24.5307 13.8492C24.5307 16.6175 26.6646 19.6165 30.9324 22.8462C33.47 21.3467 35.7193 20.5969 37.6801 20.5969C41.3712 20.5969 43.2168 22.6155 43.2168 26.6526C43.2168 28.3828 42.7266 30.286 41.7461 32.3623C43.534 34.7269 44.4279 37.178 44.4279 39.7156C44.4279 43.522 42.5535 46.9536 38.8048 50.0103C34.9983 53.1246 30.1538 55.2297 24.2711 56.3255C20.407 57.1329 17.0043 57.4213 14.063 57.1906C14.7551 63.1886 17.5522 66.1876 22.4544 66.1876C24.646 66.1876 26.6934 65.4955 28.5966 64.1114C30.5575 62.7272 31.6821 61.0835 31.9705 59.1803C31.9705 58.9496 32.0858 58.8343 32.3165 58.8343C32.5472 58.8919 32.6626 59.0361 32.6626 59.2668C32.3165 61.4584 30.9901 63.3616 28.6831 64.9765C26.4915 66.5913 24.0693 67.3987 21.4163 67.3987ZM7.14219 39.6291C10.3719 36.9185 14.582 35.0152 19.7726 33.9195C22.0796 30.4014 24.7325 27.4601 27.7315 25.0955C26.9818 24.5187 26.3185 24.0285 25.7418 23.6248C25.2227 23.1634 24.7614 22.7597 24.3576 22.4137C21.82 20.0491 20.5512 17.5979 20.5512 15.0603C20.5512 12.5804 21.7623 10.3023 24.1846 8.22605C17.8982 8.05303 12.5058 10.4465 8.00729 15.4064C4.43155 19.3281 2.64369 23.6825 2.64369 28.4693C2.64369 32.9102 4.14319 36.6301 7.14219 39.6291ZM43.8223 16.704C44.5721 16.704 45.2353 16.2426 45.8121 15.3199C46.4465 14.3394 46.7637 13.3301 46.7637 12.292C46.7637 11.7153 46.6195 10.9944 46.3311 10.1293C45.5237 11.1097 44.8605 12.0613 44.3414 12.9841C43.88 13.8492 43.534 14.6854 43.3033 15.4929C43.3033 15.5505 43.2744 15.6371 43.2168 15.7524C43.2168 15.8101 43.2168 15.8966 43.2168 16.0119C43.2168 16.4733 43.4186 16.704 43.8223 16.704ZM40.881 31.3242C41.6884 29.4209 42.0921 27.7484 42.0921 26.3066C42.0921 22.9615 40.5638 21.289 37.5071 21.289C35.8346 21.289 33.8449 21.9523 31.538 23.2788L34.6523 25.528C35.056 25.8164 35.3732 26.1047 35.6039 26.3931C35.8923 26.6238 36.123 26.7968 36.296 26.9122C38.2569 28.527 39.7852 29.9977 40.881 31.3242ZM19.7726 44.2141C22.8293 44.2141 25.6553 43.6662 28.2506 42.5704C30.8459 41.417 33.2681 39.8886 35.5174 37.9854C36.6132 37.0626 37.6225 36.0534 38.5452 34.9576C37.2188 32.5353 33.816 29.3633 28.3371 25.4415C25.3958 27.8061 22.8581 30.5456 20.7242 33.6599C21.5317 33.5446 22.2814 33.4581 22.9735 33.4004C23.7232 33.3427 24.3865 33.3139 24.9632 33.3139C25.3669 33.3139 25.7418 33.3139 26.0878 33.3139C26.4339 33.3139 26.7511 33.3427 27.0394 33.4004C27.6162 33.4581 27.9045 33.7464 27.9045 34.2655C27.9045 34.6115 27.7027 34.7557 27.299 34.698C26.3762 34.525 25.3958 34.4385 24.3576 34.4385C23.6656 34.4385 22.9446 34.4962 22.1949 34.6115C21.5028 34.6692 20.7531 34.7557 19.9456 34.8711C19.0805 36.3129 18.302 37.7836 17.6099 39.2831C16.9178 40.7826 16.2834 42.3109 15.7067 43.8681L17.2638 44.0411C17.7252 44.0988 18.1578 44.1564 18.5615 44.2141C18.9652 44.2141 19.3689 44.2141 19.7726 44.2141ZM14.6685 43.6951C15.2453 42.1956 15.8797 40.7537 16.5718 39.3696C17.3215 37.9277 18.1289 36.4859 18.994 35.0441C14.2072 36.0822 10.6314 37.9566 8.26682 40.6672C10.1124 42.1667 12.2463 43.176 14.6685 43.6951ZM17.3503 55.7199C18.3885 55.7199 19.4554 55.6334 20.5512 55.4604C21.7047 55.2874 22.9158 55.0567 24.1846 54.7683C29.0868 53.6148 32.9221 51.7116 35.6904 49.0587C38.5164 46.4057 39.9294 43.4932 39.9294 40.3212C39.9294 38.8793 39.641 37.4952 39.0643 36.1687C38.6606 36.6301 38.2569 37.0626 37.8532 37.4664C37.4495 37.8124 37.0169 38.1873 36.5555 38.591C31.4226 42.9741 24.9632 44.9927 17.1773 44.6467C16.6583 44.6467 16.1104 44.589 15.5336 44.4736C14.3225 48.1071 13.7746 51.7405 13.89 55.3739C14.4667 55.4316 15.0434 55.4892 15.6202 55.5469C16.1969 55.6622 16.7736 55.7199 17.3503 55.7199ZM12.3328 55.0278C12.3905 51.5098 13.0825 47.934 14.409 44.3006C11.9867 43.7816 9.76632 42.7723 7.74776 41.2728C6.30593 43.0607 5.58502 45.0792 5.58502 47.3285C5.58502 51.1926 7.83427 53.759 12.3328 55.0278ZM50.5296 52.173C48.5687 52.173 47.5882 51.2214 47.5882 49.3182C47.5882 47.8187 48.1361 45.4253 49.2319 42.1379C50.1547 39.0235 50.5872 37.178 50.5296 36.6013C50.2412 35.4478 49.8375 34.7846 49.3184 34.6115C48.7994 34.4385 49.1454 33.4869 50.3565 31.7567C50.5296 31.4683 51.0198 31.3242 51.8272 31.3242C53.7304 31.3242 54.682 31.6414 54.682 32.2758C54.682 33.2562 54.1341 35.9092 53.0383 40.2347C51.9425 44.4448 51.3947 47.242 51.3947 48.6261C51.3947 49.6642 51.7407 50.1833 52.4328 50.1833C54.0476 50.1833 56.3257 48.4243 59.267 44.9062C62.5544 40.9267 64.3134 37.7836 64.5441 35.4766C63.2753 34.1501 62.6409 32.6506 62.6409 30.9781C62.6409 29.4209 63.1311 28.6424 64.1116 28.6424C65.4381 28.6424 66.1013 29.9112 66.1013 32.4488C66.1013 33.6023 66.0436 34.4673 65.9283 35.0441C66.7357 35.5055 67.4855 35.7362 68.1775 35.7362C68.985 35.7362 69.6482 35.4766 70.1673 34.9576C70.5133 35.0729 70.6863 35.2459 70.6863 35.4766C70.6863 36.111 70.3115 36.5436 69.5617 36.7743C69.0426 36.9473 68.5236 37.0338 68.0045 37.0338C67.1394 37.0338 66.3608 36.7743 65.6688 36.2552C65.6688 37.0626 65.1785 38.4468 64.1981 40.4077C63.6214 41.5035 62.987 42.5128 62.2949 43.4355C61.6605 44.3583 60.9684 45.2234 60.2186 46.0308C56.4699 50.1256 53.2402 52.173 50.5296 52.173ZM53.2377 82.538C48.2201 82.538 45.0193 80.404 43.6351 76.1362C43.2891 75.2135 43.1161 74.2907 43.1161 73.3679C43.1161 69.9075 44.9039 66.9085 48.4797 64.3709C53.5549 60.9105 63.6189 57.2194 78.6716 53.2976C79.2483 52.0865 79.8827 49.5489 80.5748 45.6848L82.132 37.6394C79.7674 41.9649 77.2586 45.6559 74.6056 48.7126C74.3749 49.347 73.9136 50.0968 73.2215 50.9619C72.5871 51.7693 72.0103 52.173 71.4913 52.173C71.0876 52.173 70.8857 51.8558 70.8857 51.2214C70.8857 50.8177 70.9145 50.4717 70.9722 50.1833C71.7796 46.1462 72.1834 43.2337 72.1834 41.4458C72.1834 38.8505 71.5778 37.5529 70.3666 37.5529C69.9053 37.5529 69.2709 37.7836 68.4634 38.2449C68.1751 38.418 67.9732 38.5045 67.8579 38.5045C67.6272 38.5045 67.5118 38.418 67.5118 38.2449C67.5118 37.8412 67.7714 37.4952 68.2904 37.2068C69.7322 36.111 71.0587 35.5631 72.2699 35.5631C72.7889 35.5631 73.2503 35.6785 73.654 35.9092C74.7498 36.4859 75.2977 38.1873 75.2977 41.0133C75.2977 43.0318 75.0959 44.8197 74.6921 46.3769C75.6149 45.2234 76.7107 43.8104 77.9795 42.1379C79.2483 40.4077 80.719 38.418 82.3915 36.1687C82.6222 34.2655 83.4008 33.3139 84.7273 33.3139C85.5347 33.3139 85.9384 33.5446 85.9384 34.006C85.9384 35.6208 85.4194 38.7063 84.3812 43.2625C83.3431 47.9917 82.4492 51.1061 81.6994 52.6056C83.4873 52.2019 84.4677 51.5098 84.6408 50.5293C84.7561 49.8949 84.9868 49.5777 85.3328 49.5777C85.5635 49.5777 85.6789 49.8084 85.6789 50.2698C85.6789 52 84.1217 53.2976 81.0074 54.1627C79.2772 59.0073 76.9414 63.5923 74.0001 67.9178C70.655 72.82 67.2235 76.4823 63.7054 78.9045C60.1873 81.3268 56.6981 82.538 53.2377 82.538ZM53.4107 80.0292C59.9278 80.0292 65.3202 77.2032 69.5881 71.5512C71.4913 69.0713 74.3749 63.4481 78.239 54.6818C74.2596 55.6046 69.2132 57.3059 63.0998 59.7859C56.6981 62.3812 51.9977 64.7169 48.9987 66.7932C45.769 68.9848 44.1542 71.2917 44.1542 73.714C44.1542 74.233 44.2407 74.7521 44.4137 75.2711C45.4518 78.4432 48.4508 80.0292 53.4107 80.0292ZM92.1833 52.346C90.3378 52.0577 89.415 50.76 89.415 48.4531C89.415 44.935 91.0299 41.0421 94.2596 36.7743C97.6046 32.2758 101.065 30.0265 104.641 30.0265C105.852 30.0265 106.948 30.3149 107.928 30.8916C108.966 31.4107 109.485 32.2469 109.485 33.4004C109.485 34.7269 108.937 35.4766 107.842 35.6497C108.188 35.0729 108.361 34.4962 108.361 33.9195C108.361 32.6506 107.64 32.0162 106.198 32.0162C104.814 32.0162 103.314 32.7083 101.699 34.0925C97.72 37.4952 94.8075 41.4458 92.9619 45.9443C92.3852 47.3285 92.0968 48.4819 92.0968 49.4047C92.0968 50.1545 92.3564 50.5293 92.8754 50.5293C93.4521 50.5293 94.4614 49.8661 95.9033 48.5396C96.8837 47.6168 99.0176 44.8197 102.305 40.1482C103.17 38.937 103.862 38.3315 104.381 38.3315C104.843 38.3315 105.073 39.5426 105.073 41.9649V46.8094C105.592 49.347 106.486 50.6158 107.755 50.6158C108.447 50.6158 109.283 50.3852 110.264 49.9238C111.302 49.4047 112.311 48.5973 113.292 47.5015L114.849 45.8578C115.022 45.8001 115.224 45.9155 115.454 46.2038C115.224 46.8382 114.214 47.9052 112.427 49.4047C110.177 51.3079 108.101 52.2595 106.198 52.2595C105.679 52.2595 105.16 52.173 104.641 52C103.141 51.4809 102.161 49.8661 101.699 47.1555C101.584 46.4057 101.469 45.7713 101.353 45.2522C101.296 44.7332 101.267 44.3006 101.267 43.9546C101.267 43.7816 101.267 43.6374 101.267 43.522C100.921 44.2141 99.9115 45.6559 98.239 47.8475C95.7591 51.0772 93.7405 52.5767 92.1833 52.346ZM117.146 52.4325C116.396 52.4325 115.762 52.346 115.243 52.173C114.724 52.0577 114.32 51.9135 114.032 51.7405C113.34 51.2214 112.994 50.241 112.994 48.7991C112.994 48.3378 113.023 47.8187 113.08 47.242C113.196 46.6652 113.311 46.002 113.426 45.2522C113.657 43.8681 114.407 41.3881 115.675 37.8124C115.964 37.0626 116.195 36.3994 116.368 35.8227C116.598 35.2459 116.771 34.7557 116.887 34.352L117.319 33.2274C116.05 33.2274 113.916 33.4869 110.917 34.006H110.831C110.6 34.006 110.485 33.7176 110.485 33.1409C110.485 32.4488 110.744 32.0162 111.263 31.8432C111.667 31.6702 113.888 31.4395 117.925 31.1511C118.386 29.6516 118.934 27.9214 119.568 25.9606C120.26 23.942 121.039 21.7216 121.904 19.2993C121.962 18.9533 122.193 18.7802 122.596 18.7802C123.058 18.7802 123.577 19.184 124.153 19.9914C124.73 20.7411 125.019 21.462 125.019 22.1541C125.019 22.3848 124.99 22.5578 124.932 22.6732L120.693 31.1511C121.443 31.0935 122.106 31.0646 122.683 31.0646C123.317 31.0646 123.923 31.0646 124.499 31.0646C127.787 31.0646 129.459 31.3242 129.517 31.8432C129.517 32.0739 128.133 32.3046 125.365 32.5353C124.615 32.593 123.952 32.6506 123.375 32.7083C122.798 32.7083 122.279 32.766 121.818 32.8813L120.174 33.1409C119.54 33.1409 118.646 35.5343 117.492 40.3212C116.454 44.589 115.935 47.1266 115.935 47.934C115.935 49.6642 116.569 50.5293 117.838 50.5293C118.819 50.5293 120.751 49.7507 123.634 48.1936C123.98 47.9629 124.413 47.6745 124.932 47.3285C125.451 46.9248 126.085 46.4345 126.835 45.8578C127.989 44.8774 128.71 44.3871 128.998 44.3871C129.113 44.3871 129.2 44.5025 129.258 44.7332C129.258 45.5406 127.758 46.9824 124.759 49.0587C121.645 51.3079 119.107 52.4325 117.146 52.4325ZM132.458 53.0381C131.016 53.0381 129.834 52.3749 128.911 51.0484C127.988 49.7219 127.527 48.0205 127.527 45.9443C127.527 44.2718 127.815 42.5704 128.392 40.8402C130.526 34.3808 133.15 31.007 136.264 30.7186C136.61 30.3149 137.1 30.113 137.735 30.113C138.888 30.113 140.013 30.6321 141.109 31.6702C142.262 32.7083 142.897 33.8041 143.012 34.9576C143.762 35.8803 144.857 36.3417 146.299 36.3417C146.761 36.3417 147.453 36.2841 148.375 36.1687C149.298 36.0534 149.99 35.9957 150.452 35.9957C150.682 35.9957 150.74 36.1399 150.625 36.4282C150.567 36.6589 150.279 36.9185 149.76 37.2068C148.722 37.7259 147.424 38.0431 145.867 38.1584H144.829C143.848 38.1584 143.127 38.0431 142.666 37.8124C142.954 40.004 141.916 43.1472 139.551 47.242C137.418 51.1061 135.053 53.0381 132.458 53.0381ZM132.977 51.3079C134.476 51.3079 136.091 49.9526 137.821 47.242C138.283 46.4922 138.715 45.6559 139.119 44.7332C139.58 43.8104 139.955 42.7723 140.244 41.6188C140.82 39.6579 141.051 38.2449 140.936 37.3798C138.802 37.0338 137.562 35.7938 137.216 33.6599C135.659 34.1213 134.159 36.111 132.717 39.6291C131.391 42.9165 130.727 45.5694 130.727 47.588C130.727 50.0679 131.477 51.3079 132.977 51.3079ZM146.935 54.3358C144.744 54.3358 143.648 53.8744 143.648 52.9516C143.648 51.8558 144.571 51.2502 146.416 51.1349C148.838 51.0196 151.837 50.7312 155.413 50.2698C155.875 49.5201 156.105 48.8568 156.105 48.2801C156.105 47.3573 155.442 46.3192 154.116 45.1657C150.944 42.3974 149.358 39.7444 149.358 37.2068C149.358 36.3417 149.559 35.5343 149.963 34.7846C151.924 31.4395 154.346 29.767 157.23 29.767C158.441 29.767 159.479 30.0842 160.344 30.7186C161.209 31.353 161.642 32.0451 161.642 32.7948C161.642 33.0255 161.584 33.2562 161.469 33.4869C161.411 33.6599 161.325 33.7464 161.209 33.7464C161.094 33.7464 160.95 33.5734 160.777 33.2274C160.661 32.2469 160.114 31.7567 159.133 31.7567C157.691 31.7567 156.192 32.5353 154.635 34.0925C153.135 35.7073 152.385 37.2357 152.385 38.6775C152.385 39.9463 153.222 41.59 154.894 43.6086C156.567 45.5694 157.403 47.0401 157.403 48.0205C157.403 48.4819 157.259 49.0587 156.97 49.7507C157.72 49.4047 158.643 48.9145 159.739 48.2801C160.892 47.6457 162.247 46.8671 163.805 45.9443C163.978 46.0597 163.314 46.7806 161.815 48.1071L156.278 51.3944C155.817 52.2019 154.606 52.8939 152.645 53.4707C150.857 54.0474 148.954 54.3358 146.935 54.3358ZM169.362 52.4325C166.479 52.4325 165.037 50.414 165.037 46.3769C165.037 44.7043 165.296 42.5993 165.815 40.0616H165.556C165.152 40.0616 164.95 39.9175 164.95 39.6291C164.95 39.1677 165.469 38.3603 166.507 37.2068C169.91 22.8462 174.466 13.2725 180.176 8.48558C181.445 7.44746 182.771 6.9284 184.155 6.9284C186.059 6.9284 187.01 7.90885 187.01 9.86974C187.01 14.1376 184.963 18.9821 180.868 24.4034C178.561 27.287 174.87 31.2665 169.795 36.3417C168.468 40.8402 167.805 44.416 167.805 47.0689C167.805 49.6066 168.67 50.8754 170.4 50.8754C171.727 50.8754 173.313 50.3563 175.158 49.3182C177.004 48.2801 178.446 47.0978 179.484 45.7713C179.888 45.2522 180.205 44.9927 180.435 44.9927C180.551 44.9927 180.609 45.1081 180.609 45.3387C180.609 45.9732 180.435 46.4922 180.089 46.8959C179.051 48.1071 177.465 49.2894 175.331 50.4428C172.851 51.7693 170.862 52.4325 169.362 52.4325ZM170.054 34.4385C173.169 31.5549 176.312 27.9214 179.484 23.5383C183.521 17.944 185.597 13.6185 185.713 10.5618V10.3023C185.713 8.91813 185.309 8.22605 184.501 8.22605C183.521 8.22605 182.396 9.03347 181.128 10.6483C180.32 11.6288 179.397 13.0418 178.359 14.8873C177.321 16.6752 176.168 18.9533 174.899 21.7216C173.745 24.2592 172.765 26.595 171.958 28.7289C171.15 30.8051 170.516 32.7083 170.054 34.4385ZM181.734 52.346C179.889 52.0577 178.966 50.76 178.966 48.4531C178.966 44.935 180.581 41.0421 183.811 36.7743C187.156 32.2758 190.616 30.0265 194.192 30.0265C195.403 30.0265 196.499 30.3149 197.479 30.8916C198.517 31.4107 199.036 32.2469 199.036 33.4004C199.036 34.7269 198.489 35.4766 197.393 35.6497C197.739 35.0729 197.912 34.4962 197.912 33.9195C197.912 32.6506 197.191 32.0162 195.749 32.0162C194.365 32.0162 192.865 32.7083 191.251 34.0925C187.271 37.4952 184.359 41.4458 182.513 45.9443C181.936 47.3285 181.648 48.4819 181.648 49.4047C181.648 50.1545 181.907 50.5293 182.427 50.5293C183.003 50.5293 184.013 49.8661 185.454 48.5396C186.435 47.6168 188.569 44.8197 191.856 40.1482C192.721 38.937 193.413 38.3315 193.932 38.3315C194.394 38.3315 194.624 39.5426 194.624 41.9649V46.8094C195.143 49.347 196.037 50.6158 197.306 50.6158C197.998 50.6158 198.835 50.3852 199.815 49.9238C200.853 49.4047 201.862 48.5973 202.843 47.5015L204.4 45.8578C204.573 45.8001 204.775 45.9155 205.006 46.2038C204.775 46.8382 203.766 47.9052 201.978 49.4047C199.729 51.3079 197.652 52.2595 195.749 52.2595C195.23 52.2595 194.711 52.173 194.192 52C192.692 51.4809 191.712 49.8661 191.251 47.1555C191.135 46.4057 191.02 45.7713 190.905 45.2522C190.847 44.7332 190.818 44.3006 190.818 43.9546C190.818 43.7816 190.818 43.6374 190.818 43.522C190.472 44.2141 189.463 45.6559 187.79 47.8475C185.31 51.0772 183.292 52.5767 181.734 52.346ZM204.794 52.173C202.833 52.173 201.853 51.2214 201.853 49.3182C201.853 47.8187 202.401 45.4253 203.496 42.1379C204.419 39.0235 204.852 37.178 204.794 36.6013C204.506 35.4478 204.102 34.7846 203.583 34.6115C203.064 34.4385 203.41 33.4869 204.621 31.7567C204.794 31.4683 205.284 31.3242 206.092 31.3242C207.995 31.3242 208.947 31.6414 208.947 32.2758C208.947 33.2562 208.399 35.9092 207.303 40.2347C206.207 44.4448 205.659 47.242 205.659 48.6261C205.659 49.6642 206.005 50.1833 206.697 50.1833C208.312 50.1833 210.59 48.4243 213.532 44.9062C216.819 40.9267 218.578 37.7836 218.809 35.4766C217.54 34.1501 216.905 32.6506 216.905 30.9781C216.905 29.4209 217.396 28.6424 218.376 28.6424C219.703 28.6424 220.366 29.9112 220.366 32.4488C220.366 33.6023 220.308 34.4673 220.193 35.0441C221 35.5055 221.75 35.7362 222.442 35.7362C223.249 35.7362 223.913 35.4766 224.432 34.9576C224.778 35.0729 224.951 35.2459 224.951 35.4766C224.951 36.111 224.576 36.5436 223.826 36.7743C223.307 36.9473 222.788 37.0338 222.269 37.0338C221.404 37.0338 220.625 36.7743 219.933 36.2552C219.933 37.0626 219.443 38.4468 218.463 40.4077C217.886 41.5035 217.251 42.5128 216.559 43.4355C215.925 44.3583 215.233 45.2234 214.483 46.0308C210.734 50.1256 207.505 52.173 204.794 52.173Z" fill="black"/>
</g>
<defs>
<filter id="filter0_d_66_3451" x="49.4822" y="3.35039" width="172.619" height="31.0931" filterUnits="userSpaceOnUse" color-interpolation-filters="sRGB">
<feFlood flood-opacity="0" result="BackgroundImageFix"/>
<feColorMatrix in="SourceAlpha" type="matrix" values="0 0 0 0 0 0 0 0 0 0 0 0 0 0 0 0 0 0 127 0" result="hardAlpha"/>
<feOffset dx="0.736806" dy="0.982407"/>
<feGaussianBlur stdDeviation="0.589444"/>
<feComposite in2="hardAlpha" operator="out"/>
<feColorMatrix type="matrix" values="0 0 0 0 0 0 0 0 0 0 0 0 0 0 0 0 0 0 0.15 0"/>
<feBlend mode="normal" in2="BackgroundImageFix" result="effect1_dropShadow_66_3451"/>
<feBlend mode="normal" in="SourceGraphic" in2="effect1_dropShadow_66_3451" result="shape"/>
</filter>
<filter id="filter1_d_66_3451" x="0.311898" y="3.04661" width="228.745" height="84.1243" filterUnits="userSpaceOnUse" color-interpolation-filters="sRGB">
<feFlood flood-opacity="0" result="BackgroundImageFix"/>
<feColorMatrix in="SourceAlpha" type="matrix" values="0 0 0 0 0 0 0 0 0 0 0 0 0 0 0 0 0 0 127 0" result="hardAlpha"/>
<feOffset dx="1.57937" dy="2.10583"/>
<feGaussianBlur stdDeviation="1.2635"/>
<feComposite in2="hardAlpha" operator="out"/>
<feColorMatrix type="matrix" values="0 0 0 0 0 0 0 0 0 0 0 0 0 0 0 0 0 0 0.15 0"/>
<feBlend mode="normal" in2="BackgroundImageFix" result="effect1_dropShadow_66_3451"/>
<feBlend mode="normal" in="SourceGraphic" in2="effect1_dropShadow_66_3451" result="shape"/>
</filter>
</defs>
</svg>
