<svg width="70" height="71" viewBox="0 0 70 71" fill="none" xmlns="http://www.w3.org/2000/svg">
<path d="M20.5883 35.2223V28.8105C20.5883 25.0393 20.5883 23.1537 21.7598 21.9821C22.9314 20.8105 24.817 20.8105 28.5883 20.8105H29.6275C31.2625 20.8105 32.08 20.8105 32.8151 21.115C33.5502 21.4195 34.1282 21.9976 35.2843 23.1537L36.7745 24.6439C37.9306 25.8 38.5087 26.3781 39.2438 26.6825C39.9789 26.987 40.7964 26.987 42.4314 26.987H45.5294C49.3007 26.987 51.1863 26.987 52.3579 28.1586C53.5294 29.3302 53.5294 31.2158 53.5294 34.987V41.6341C53.5294 45.4053 53.5294 47.2909 52.3579 48.4625C51.1863 49.6341 49.3007 49.6341 45.5294 49.6341H35" stroke="#33363F" stroke-width="4" stroke-linecap="round"/>
<path d="M18.5294 44.4869L23.6765 49.634L33.9706 39.3398" stroke="#33363F" stroke-width="4" stroke-linecap="round"/>
</svg>
