<svg width="70" height="71" viewBox="0 0 70 71" fill="none" xmlns="http://www.w3.org/2000/svg">
<path d="M45.7083 38.0412L51.0046 43.3374C51.7168 44.0496 51.7168 45.2043 51.0046 45.9165C47.1542 49.7669 41.0584 50.2001 36.7021 46.9329L33.5513 44.5698C30.0642 41.9545 26.9666 38.8569 24.3513 35.3698L21.9881 32.219C18.7209 27.8627 19.1542 21.7669 23.0046 17.9165C23.7168 17.2043 24.8715 17.2043 25.5837 17.9165L30.8799 23.2127C31.661 23.9938 31.661 25.2601 30.8799 26.0412L28.8376 28.0835C28.5131 28.408 28.4326 28.9039 28.6379 29.3144C31.0112 34.0611 34.86 37.9099 39.6067 40.2832C40.0172 40.4885 40.5131 40.408 40.8376 40.0835L42.8799 38.0412C43.661 37.2601 44.9273 37.2601 45.7083 38.0412Z" stroke="#33363F" stroke-width="4"/>
</svg>
