<svg width="70" height="71" viewBox="0 0 70 71" fill="none" xmlns="http://www.w3.org/2000/svg">
<path d="M38.5751 55.8305C41.2377 55.361 43.7818 54.3717 46.0621 52.919C48.3423 51.4663 50.3141 49.5787 51.8649 47.364C53.4157 45.1492 54.515 42.6507 55.1002 40.0111C55.6854 37.3715 55.745 34.6425 55.2755 31.9799C54.806 29.3173 53.8167 26.7732 52.364 24.493C50.9113 22.2127 49.0237 20.2409 46.8089 18.6901C44.5942 17.1394 42.0957 16.04 39.4561 15.4548C36.8165 14.8696 34.0875 14.8101 31.4249 15.2796C28.7623 15.7491 26.2182 16.7384 23.938 18.1911C21.6577 19.6438 19.6859 21.5314 18.1351 23.7461C16.5843 25.9608 15.485 28.4593 14.8998 31.0989C14.3146 33.7385 14.2551 36.4675 14.7246 39.1301C15.1941 41.7928 16.1834 44.3368 17.6361 46.6171C19.0888 48.8974 20.9764 50.8692 23.1911 52.4199C25.4058 53.9707 27.9043 55.0701 30.5439 55.6553C33.1835 56.2404 35.9125 56.3 38.5751 55.8305L38.5751 55.8305Z" stroke="#33363F" stroke-width="4"/>
<path d="M35 35.5557L35 47.9086" stroke="#33363F" stroke-width="4" stroke-linecap="round"/>
<path d="M35 25.2617L35 23.2029" stroke="#33363F" stroke-width="4" stroke-linecap="round"/>
</svg>
