<svg width="70" height="71" viewBox="0 0 70 71" fill="none" xmlns="http://www.w3.org/2000/svg">
<path d="M36.9339 24.7277L22.0163 39.6452C21.9901 39.6714 21.9632 39.6982 21.9356 39.7257C21.6312 40.0282 21.246 40.4111 20.9722 40.8946C20.6984 41.3781 20.5683 41.9055 20.4655 42.3221C20.4562 42.3599 20.4471 42.3968 20.4381 42.4327L19.0522 47.9762C19.0466 47.9986 19.0407 48.0219 19.0347 48.0459C18.9611 48.3389 18.8591 48.7447 18.8239 49.1039C18.7835 49.5173 18.7701 50.4212 19.5077 51.1588C20.2452 51.8963 21.1491 51.883 21.5625 51.8425C21.9218 51.8074 22.3276 51.7054 22.6206 51.6317C22.6446 51.6257 22.6678 51.6198 22.6902 51.6142L28.2338 50.2284C28.2696 50.2194 28.3065 50.2103 28.3444 50.2009C28.761 50.0981 29.2883 49.968 29.7718 49.6942C30.2554 49.4205 30.6383 49.0352 30.9408 48.7309C30.9683 48.7032 30.995 48.6763 31.0212 48.6501L45.9387 33.7326C45.9644 33.7069 45.9901 33.6813 46.0157 33.6557C46.6156 33.056 47.1985 32.4733 47.6146 31.928C48.0836 31.3132 48.5245 30.5173 48.5245 29.4899C48.5245 28.4626 48.0836 27.6667 47.6146 27.0519C47.1985 26.5066 46.6155 25.9238 46.0157 25.3242C45.9901 25.2986 45.9644 25.273 45.9387 25.2473L45.4191 24.7277C45.3935 24.702 45.3678 24.6764 45.3422 24.6507C44.7426 24.0509 44.1599 23.4679 43.6145 23.0519C42.9997 22.5828 42.2038 22.1419 41.1765 22.1419C40.1492 22.1419 39.3532 22.5828 38.7385 23.0519C38.1931 23.4679 37.6104 24.0509 37.0108 24.6507C36.9852 24.6764 36.9595 24.702 36.9339 24.7277Z" stroke="#33363F" stroke-width="4"/>
<path d="M36.0294 26.4018L42.2059 22.2842L48.3824 28.4607L44.2647 34.6371L36.0294 26.4018Z" fill="#33363F"/>
</svg>
