<svg width="70" height="71" viewBox="0 0 70 71" fill="none" xmlns="http://www.w3.org/2000/svg">
<path d="M16.4706 30.6932C16.4706 28.585 18.1796 26.8759 20.2879 26.8759V26.8759C21.7337 26.8759 23.0555 26.059 23.7021 24.7658L25.3921 21.3857C25.65 20.8701 25.7789 20.6123 25.9295 20.3909C26.5687 19.4512 27.5774 18.8278 28.7037 18.6763C28.9691 18.6406 29.2573 18.6406 29.8338 18.6406H40.1662C40.7427 18.6406 41.0309 18.6406 41.2963 18.6763C42.4226 18.8278 43.4313 19.4512 44.0705 20.3909C44.2211 20.6123 44.35 20.8701 44.6078 21.3857L46.2979 24.7658C46.9445 26.059 48.2663 26.8759 49.7121 26.8759V26.8759C51.8204 26.8759 53.5294 28.585 53.5294 30.6932V40.9936C53.5294 45.291 53.5294 47.4398 52.4794 48.9726C52.0605 49.5842 51.5318 50.1128 50.9202 50.5318C49.3874 51.5818 47.2387 51.5818 42.9412 51.5818H27.0588C22.7613 51.5818 20.6126 51.5818 19.0798 50.5318C18.4682 50.1128 17.9395 49.5842 17.5206 48.9726C16.4706 47.4398 16.4706 45.291 16.4706 40.9936V30.6932Z" stroke="#222222" stroke-width="4"/>
<circle cx="35" cy="37.1699" r="6.23529" stroke="#222222" stroke-width="4"/>
</svg>
