<svg width="1000" height="1000" viewBox="0 0 1000 1000" fill="none" xmlns="http://www.w3.org/2000/svg">
<path d="M345.98 231H144V769.19H257.37V601.09H345.98C397.08 601.09 443.34 580.37 476.83 546.89C510.31 513.4 531.03 467.14 531.03 416.04C531.03 313.85 448.18 231 345.99 231H345.98ZM393.39 477.78C377.58 493.57 355.76 503.35 331.65 503.35H257.37V328.73H331.65C379.87 328.73 418.96 367.82 418.96 416.04C418.96 440.15 409.19 461.97 393.39 477.78Z" fill="#9A99FF"/>
<path d="M712.15 409.681V357.401H603.99V769.181H712.15V534.891C712.15 515.281 721.6 496.761 737.73 485.611C781.23 455.571 856.14 459.681 856.14 459.681V346.311C762.32 346.311 712.15 409.661 712.15 409.661V409.681Z" fill="#9A99FF"/>
</svg>
