<svg width="1000" height="1000" viewBox="0 0 1000 1000" fill="none" xmlns="http://www.w3.org/2000/svg">
<path d="M331.98 223H130V761.19H243.37V593.09H331.98C383.08 593.09 429.34 572.37 462.83 538.89C496.31 505.4 517.03 459.14 517.03 408.04C517.03 305.85 434.18 223 331.99 223H331.98ZM379.39 469.79C363.58 485.58 341.76 495.36 317.65 495.36H243.37V320.74H317.65C365.87 320.74 404.96 359.83 404.96 408.05C404.96 432.16 395.19 453.98 379.39 469.79Z" fill="#30A8FF"/>
<path d="M870.82 640.519C870.82 676.239 854.16 710.329 827.87 734.149C798.24 760.999 757.09 772.449 717.97 775.429C713.28 775.789 708.59 776.009 703.89 776.109C660.42 776.999 614.72 767.749 575.22 749.499C574.8 749.309 574.38 749.109 573.96 748.919C574.03 717.229 574.09 685.549 574.16 653.859C574.16 655.589 605.58 663.189 609.48 664.469C645.34 676.229 688.14 685.039 725.92 680.199C733.9 679.179 742.1 677.189 748.28 672.049C771.58 652.699 747.96 628.629 728.97 619.389C708.37 609.379 686.19 603.049 665.16 593.999C645.22 585.429 626.2 574.299 610.32 559.499C557.78 510.539 559.82 428.329 613.37 380.779C643.69 353.859 684.63 345.309 724.16 343.569C765.07 341.769 806.37 349.059 844.23 364.639C845.68 365.239 847.22 365.929 848.03 367.269C848.72 368.419 848.74 369.829 848.74 371.159C848.78 403.509 848.82 435.869 848.85 468.219C842.68 462.949 834.25 460.769 826.93 457.569C819 454.099 810.9 451.049 802.66 448.399C773.48 439.049 735.59 430.419 705.64 440.679C694.63 444.449 686.43 452.289 686.43 464.479C686.43 483.329 704.91 492.399 720.01 499.289C738.72 507.819 758.67 513.009 777.33 521.659C825.77 544.129 870.8 582.669 870.8 640.489L870.82 640.519Z" fill="#30A8FF"/>
</svg>
