<svg width="120" height="120" viewBox="0 0 120 120" fill="none" xmlns="http://www.w3.org/2000/svg">
<g clip-path="url(#clip0_205_4314)">
<path fill-rule="evenodd" clip-rule="evenodd" d="M120 60C120 93.1371 93.1371 120 60 120C26.8629 120 0 93.1371 0 60C0 26.8629 26.8629 0 60 0C93.1371 0 120 26.8629 120 60ZM62.1501 44.2946C56.3142 46.722 44.6507 51.746 27.1595 59.3666C24.3192 60.4961 22.8313 61.6011 22.6958 62.6815C22.4669 64.5075 24.7536 65.2265 27.8673 66.2056C28.2909 66.3388 28.7298 66.4768 29.1797 66.623C32.2432 67.6189 36.3641 68.7839 38.5064 68.8302C40.4497 68.8721 42.6186 68.071 45.0132 66.4267C61.3558 55.395 69.7919 49.819 70.3216 49.6988C70.6952 49.614 71.213 49.5074 71.5638 49.8192C71.9147 50.1311 71.8802 50.7216 71.843 50.88C71.6165 51.8457 62.6406 60.1905 57.9956 64.5089C56.5475 65.8551 55.5204 66.8101 55.3104 67.0282C54.84 67.5167 54.3606 67.9789 53.8999 68.423C51.0538 71.1666 48.9196 73.2241 54.0181 76.5839C56.4682 78.1985 58.4288 79.5337 60.3848 80.8657C62.5209 82.3204 64.6515 83.7713 67.4081 85.5783C68.1104 86.0387 68.7811 86.5169 69.4345 86.9826C71.9204 88.7549 74.1537 90.3471 76.9129 90.0932C78.5162 89.9456 80.1723 88.4381 81.0134 83.9418C83.0011 73.3157 86.9081 50.2923 87.8111 40.8049C87.8902 39.9736 87.7907 38.9099 87.7108 38.4429C87.6308 37.9759 87.4638 37.3105 86.8568 36.818C86.138 36.2347 85.0282 36.1117 84.5318 36.1204C82.2751 36.1602 78.8128 37.3641 62.1501 44.2946Z" fill="#4F8CE5"/>
</g>
<defs>
<clipPath id="clip0_205_4314">
<rect width="120" height="120" fill="white"/>
</clipPath>
</defs>
</svg>
