<svg width="120" height="120" viewBox="0 0 120 120" fill="none" xmlns="http://www.w3.org/2000/svg">
<path d="M101.585 20.7813C93.9367 17.2719 85.7349 14.6863 77.1595 13.2054C77.0033 13.1769 76.8473 13.2483 76.7669 13.3911C75.7121 15.2672 74.5437 17.7147 73.7255 19.6384C64.502 18.2576 55.3259 18.2576 46.2916 19.6384C45.4732 17.6719 44.2624 15.2672 43.2029 13.3911C43.1224 13.253 42.9664 13.1816 42.8103 13.2054C34.2395 14.6816 26.0378 17.2671 18.3847 20.7813C18.3184 20.8098 18.2616 20.8575 18.2239 20.9194C2.66696 44.1612 -1.59475 66.8317 0.495901 89.2212C0.50536 89.3307 0.566849 89.4355 0.65199 89.5021C10.916 97.0398 20.8585 101.616 30.6164 104.649C30.7726 104.697 30.938 104.639 31.0374 104.511C33.3456 101.359 35.4032 98.0351 37.1674 94.5399C37.2715 94.3352 37.1721 94.0923 36.9593 94.0114C33.6957 92.7734 30.588 91.2639 27.5986 89.5497C27.3622 89.4117 27.3433 89.0735 27.5608 88.9115C28.1899 88.4402 28.8191 87.9497 29.4198 87.4545C29.5285 87.3641 29.6799 87.345 29.8077 87.4021C49.4464 96.3685 70.7077 96.3685 90.1148 87.4021C90.2425 87.3402 90.394 87.3593 90.5074 87.4497C91.1082 87.945 91.7373 88.4402 92.3711 88.9115C92.5886 89.0735 92.5744 89.4117 92.338 89.5497C89.3486 91.2972 86.241 92.7734 82.9726 94.0066C82.7598 94.0876 82.6651 94.3352 82.7692 94.5399C84.5713 98.0302 86.6288 101.354 88.8945 104.506C88.9891 104.639 89.1593 104.697 89.3155 104.649C99.1207 101.616 109.063 97.0398 119.327 89.5021C119.417 89.4355 119.474 89.3354 119.483 89.2259C121.985 63.3412 115.292 40.8566 101.741 20.9241C101.708 20.8575 101.651 20.8098 101.585 20.7813ZM40.1001 75.5883C34.1875 75.5883 29.3157 70.1601 29.3157 63.4937C29.3157 56.8273 34.093 51.399 40.1001 51.399C46.1544 51.399 50.979 56.8749 50.8844 63.4937C50.8844 70.1601 46.107 75.5883 40.1001 75.5883ZM79.9737 75.5883C74.0613 75.5883 69.1895 70.1601 69.1895 63.4937C69.1895 56.8273 73.9666 51.399 79.9737 51.399C86.0282 51.399 90.8527 56.8749 90.7582 63.4937C90.7582 70.1601 86.0282 75.5883 79.9737 75.5883Z" fill="#4F8CE5"/>
</svg>
