<svg width="120" height="120" viewBox="0 0 120 120" fill="none" xmlns="http://www.w3.org/2000/svg">
<g clip-path="url(#clip0_205_4308)">
<path d="M59.9988 49.0918V72.3282H92.2896C90.8717 79.8009 86.6166 86.1284 80.2349 90.3829L99.7075 105.492C111.053 95.0197 117.598 79.6378 117.598 61.3651C117.598 57.1107 117.217 53.0194 116.507 49.0925L59.9988 49.0918Z" fill="#4F8CE5"/>
<path d="M26.3731 71.4219L21.9813 74.7838L6.43555 86.8927C16.3082 106.474 36.5431 120.002 59.9975 120.002C76.1971 120.002 89.7787 114.656 99.7062 105.493L80.2336 90.3837C74.8881 93.9836 68.0699 96.1657 59.9975 96.1657C44.3976 96.1657 31.1434 85.6385 26.3976 71.4565L26.3731 71.4219Z" fill="#4F8CE5"/>
<path d="M6.4359 33.1094C2.34521 41.1818 0 50.291 0 59.9999C0 69.7088 2.34521 78.8181 6.4359 86.8905C6.4359 86.9447 26.3999 71.3996 26.3999 71.3996C25.1999 67.7996 24.4906 63.9816 24.4906 59.9993C24.4906 56.017 25.1999 52.199 26.3999 48.599L6.4359 33.1094Z" fill="#4F8CE5"/>
<path d="M59.9987 23.8909C68.8352 23.8909 76.6896 26.9454 82.9623 32.8363L100.144 15.6547C89.7258 5.94583 76.1989 0 59.9987 0C36.5443 0 16.3082 13.4727 6.43555 33.1091L26.3989 48.6001C31.1441 34.4181 44.3988 23.8909 59.9987 23.8909Z" fill="#4F8CE5"/>
</g>
<defs>
<clipPath id="clip0_205_4308">
<rect width="120" height="120" fill="white"/>
</clipPath>
</defs>
</svg>
