<svg width="1014" height="1080" viewBox="0 0 1014 1080" fill="none" xmlns="http://www.w3.org/2000/svg">
<path fill-rule="evenodd" clip-rule="evenodd" d="M188.791 452.851C77.5866 556.553 -30.3748 657.23 7.85151 790.546C16.2614 819.876 29.6545 844.526 47.0166 865.453C79.5951 904.72 102.574 955.543 92.1844 1005.5C79.1333 1068.25 71.5439 1134.84 64.2756 1198.62C60.6132 1230.75 57.0324 1262.17 52.8754 1292.03C28.1912 1469.29 17.9412 1665.13 132.927 1802.29C196.448 1878.06 293.987 1886.02 394.608 1894.24C460.502 1899.62 527.717 1905.1 587.567 1929.81C662.912 1960.92 731.938 2021.49 799.302 2080.59C912.002 2179.48 1020.05 2274.28 1145.26 2220.24C1280.06 2162.06 1280.73 2000.05 1281.41 1836.57C1281.71 1763.16 1282.02 1689.45 1294.47 1624.71C1305.08 1569.55 1325.81 1512.58 1346.45 1455.87C1394.1 1324.94 1441.24 1195.38 1362.14 1092.6C1359.77 1089.51 1360.83 1084.97 1364.36 1083.33C1426.2 1054.76 1476.66 1012.86 1504.98 949.403C1556.72 833.49 1485.05 721.72 1411.8 607.503C1376.39 552.298 1340.62 496.52 1318.24 439.427C1300.97 395.341 1288.66 349.568 1276.49 304.33C1249.83 205.173 1223.86 108.587 1147.74 37.9736C1005.98 -93.5395 823.831 -247.321 638.632 -191.07C518.134 -154.471 474.701 -33.0608 430.002 91.8905C406.314 158.105 382.271 225.313 346.216 281.422C306.732 342.867 247.312 398.278 188.791 452.851Z" fill="#4F8CE5"/>
</svg>
