<svg width="1323" height="1080" viewBox="0 0 1323 1080" fill="none" xmlns="http://www.w3.org/2000/svg">
<path fill-rule="evenodd" clip-rule="evenodd" d="M995.136 778.626C1134.91 718.761 1270.61 660.642 1279.84 522.262C1289.77 373.256 1149.4 289.255 1008.63 205.011C949.363 169.547 890.028 134.04 841.803 93.6221C819.094 74.5889 797 55.0799 775.063 35.7108C682.249 -46.2418 592.269 -125.691 470.567 -156.006C459.535 -158.754 448.333 -161.587 436.991 -164.455C259.654 -209.298 48.2928 -262.744 -74.8011 -134.698C-162.772 -43.1878 -133.225 86.2625 -103.032 218.547C-88.4385 282.485 -73.6938 347.086 -71.9946 408.385C-70.6825 455.718 -74.6193 502.953 -78.5101 549.637C-87.0383 651.961 -95.3454 751.633 -47.6753 843.867C-33.6075 871.085 -18.7752 899.174 -3.00473 927.212C11.0217 952.15 15.1725 981.437 9.45799 1009.47C-3.09467 1071.06 -10.5173 1136.19 -17.6324 1198.62C-21.2947 1230.75 -24.8756 1262.17 -29.0326 1292.03C-53.7168 1469.3 -63.9668 1665.13 51.0186 1802.29C114.54 1878.06 212.079 1886.02 312.7 1894.24C378.594 1899.62 445.809 1905.1 505.659 1929.81C581.004 1960.92 650.03 2021.49 717.394 2080.59C830.094 2179.48 938.143 2274.28 1063.35 2220.24C1198.15 2162.06 1198.82 2000.06 1199.5 1836.57C1199.8 1763.16 1200.11 1689.45 1212.56 1624.71C1223.17 1569.55 1243.9 1512.58 1264.54 1455.87C1312.19 1324.94 1359.34 1195.39 1280.23 1092.6C1213.61 1006.02 1102.39 1017.57 986.288 1029.62C904.991 1038.06 821.303 1046.75 748.862 1022.17C713.037 1010.01 705.422 964.858 731.869 937.807C750.059 919.202 768.953 901.839 788.919 886.54C846.895 842.118 921.58 810.13 995.136 778.626Z" fill="#4F8CE5"/>
</svg>
